<?xml version="1.0" encoding="UTF-8"?>
<svg xmlns="http://www.w3.org/2000/svg" xmlns:xlink="http://www.w3.org/1999/xlink" width="192px" height="192px" viewBox="0 0 192 192" version="1.1">
<defs>
<clipPath id="clip1">
  <path d="M 8.832031 0 L 183.167969 0 C 188.046875 0 192 3.953125 192 8.832031 L 192 183.167969 C 192 188.046875 188.046875 192 183.167969 192 L 8.832031 192 C 3.953125 192 0 188.046875 0 183.167969 L 0 8.832031 C 0 3.953125 3.953125 0 8.832031 0 Z M 8.832031 0 "/>
</clipPath>
<clipPath id="clip2">
  <path d="M 33.792969 19.136719 L 165.375 19.136719 L 165.375 173 L 33.792969 173 Z M 33.792969 19.136719 "/>
</clipPath>
</defs>
<g id="surface1">
<g clip-path="url(#clip1)" clip-rule="nonzero">
<rect x="0" y="0" width="192" height="192" style="fill:rgb(11.764706%,14.117647%,17.254902%);fill-opacity:1;stroke:none;"/>
</g>
<g clip-path="url(#clip2)" clip-rule="nonzero">
<path style=" stroke:none;fill-rule:nonzero;fill:rgb(100%,100%,100%);fill-opacity:1;" d="M 165.078125 44.511719 C 164.253906 29.898438 152.945312 19.378906 138.640625 19.332031 C 131.835938 19.308594 125.027344 19.328125 118.21875 19.328125 C 108.839844 19.328125 99.457031 19.386719 87.453125 19.285156 L 87.453125 58.769531 C 80.867188 59.101562 74.539062 60.609375 68.414062 63.183594 C 36.855469 76.445312 26.210938 112.664062 39.589844 140.910156 C 52.777344 168.761719 85.050781 178.730469 111.289062 169.339844 C 118.125 166.894531 124.148438 163.136719 129.738281 158.085938 C 127.445312 155.484375 125.339844 153.105469 123.242188 150.726562 C 121.1875 148.386719 121.195312 148.402344 118.746094 150.253906 C 104.789062 160.828125 89.457031 162.703125 73.523438 156.109375 C 58.097656 149.726562 49.472656 137.507812 47.601562 120.980469 C 45.941406 106.324219 50.207031 93.441406 61.15625 83.207031 C 68.636719 76.210938 77.542969 72.574219 87.449219 71.796875 L 87.449219 131.234375 L 100.1875 131.234375 L 100.1875 71.582031 C 112.902344 71.53125 125.617188 71.59375 138.335938 71.585938 C 139.664062 71.585938 141.019531 71.628906 142.320312 71.425781 C 156.546875 69.167969 165.800781 57.117188 165.078125 44.511719 Z M 151.699219 48.691406 C 149.914062 54.980469 144.734375 58.730469 137.699219 58.738281 C 125.195312 58.746094 112.695312 58.742188 100.191406 58.714844 L 100.191406 32.34375 C 113.179688 32.316406 125.023438 32.335938 136.863281 32.347656 C 138.265625 32.347656 139.683594 32.382812 141.066406 32.558594 C 148.386719 33.476562 153.714844 41.585938 151.699219 48.691406 Z M 151.699219 48.691406 "/>
</g>
</g>
</svg>
