<?xml version="1.0" encoding="UTF-8"?>
<svg xmlns="http://www.w3.org/2000/svg" xmlns:xlink="http://www.w3.org/1999/xlink" width="512px" height="512px" viewBox="0 0 512 512" version="1.1">
<defs>
<clipPath id="clip1">
  <path d="M 23.550781 0 L 488.449219 0 C 501.457031 0 512 10.542969 512 23.550781 L 512 488.449219 C 512 501.457031 501.457031 512 488.449219 512 L 23.550781 512 C 10.542969 512 0 501.457031 0 488.449219 L 0 23.550781 C 0 10.542969 10.542969 0 23.550781 0 Z M 23.550781 0 "/>
</clipPath>
<clipPath id="clip2">
  <path d="M 90.113281 51.035156 L 441 51.035156 L 441 461 L 90.113281 461 Z M 90.113281 51.035156 "/>
</clipPath>
</defs>
<g id="surface1">
<g clip-path="url(#clip1)" clip-rule="nonzero">
<rect x="0" y="0" width="512" height="512" style="fill:rgb(11.764706%,14.117647%,17.254902%);fill-opacity:1;stroke:none;"/>
</g>
<g clip-path="url(#clip2)" clip-rule="nonzero">
<path style=" stroke:none;fill-rule:nonzero;fill:rgb(100%,100%,100%);fill-opacity:1;" d="M 440.214844 118.699219 C 438.003906 79.726562 407.851562 51.675781 369.710938 51.550781 C 351.558594 51.492188 333.402344 51.542969 315.246094 51.542969 C 290.234375 51.542969 265.222656 51.695312 233.210938 51.425781 L 233.210938 156.714844 C 215.648438 157.601562 198.769531 161.625 182.441406 168.484375 C 98.277344 203.851562 69.898438 300.4375 105.566406 375.761719 C 140.742188 450.03125 226.804688 476.613281 296.773438 451.566406 C 314.996094 445.050781 331.066406 435.03125 345.96875 421.558594 C 339.851562 414.628906 334.238281 408.28125 328.644531 401.9375 C 323.164062 395.703125 323.183594 395.738281 316.65625 400.671875 C 279.441406 428.875 238.554688 433.878906 196.058594 416.292969 C 154.929688 399.273438 131.925781 366.683594 126.933594 322.617188 C 122.507812 283.535156 133.882812 249.179688 163.082031 221.882812 C 183.035156 203.226562 206.785156 193.535156 233.199219 191.460938 L 233.199219 349.960938 L 267.164062 349.960938 L 267.164062 190.886719 C 301.070312 190.746094 334.980469 190.917969 368.890625 190.894531 C 372.441406 190.894531 376.046875 191.007812 379.523438 190.464844 C 417.460938 184.449219 442.132812 152.308594 440.214844 118.699219 Z M 404.527344 129.84375 C 399.777344 146.613281 385.960938 156.613281 367.195312 156.632812 C 333.855469 156.65625 300.515625 156.644531 267.171875 156.574219 L 267.171875 86.246094 C 301.8125 86.175781 333.390625 86.222656 364.964844 86.257812 C 368.710938 86.257812 372.484375 86.355469 376.179688 86.828125 C 395.703125 89.269531 409.910156 110.894531 404.527344 129.84375 Z M 404.527344 129.84375 "/>
</g>
</g>
</svg>
