<svg xmlns="http://www.w3.org/2000/svg" width="500" zoomAndPan="magnify" viewBox="0 0 375 374.999991" height="500"
     preserveAspectRatio="xMidYMid meet" version="1.0"><defs><clipPath id="540c7e508b"><path d="M 17.25 0 L 357.75 0 C 367.277344 0 375 7.722656 375 17.25 L 375 357.75 C 375 367.277344 367.277344 375 357.75 375 L 17.25 375 C 7.722656 375 0 367.277344 0 357.75 L 0 17.25 C 0 7.722656 7.722656 0 17.25 0 Z M 17.25 0 " clip-rule="nonzero"/></clipPath><clipPath id="327f21b8b9"><path d="M 66 37.378906 L 323 37.378906 L 323 338 L 66 338 Z M 66 37.378906 " clip-rule="nonzero"/></clipPath></defs><g clip-path="url(#540c7e508b)"><rect x="-37.5" width="450" fill="#1e242c" y="-37.499999" height="449.999989" fill-opacity="1"/></g><g clip-path="url(#327f21b8b9)"><path fill="#ffffff" d="M 322.421875 86.9375 C 320.804688 58.394531 298.71875 37.847656 270.785156 37.757812 C 257.488281 37.714844 244.191406 37.75 230.894531 37.75 C 212.574219 37.75 194.253906 37.863281 170.808594 37.664062 L 170.808594 114.78125 C 157.945312 115.429688 145.582031 118.378906 133.625 123.402344 C 71.980469 149.304688 51.195312 220.046875 77.320312 275.214844 C 103.082031 329.613281 166.117188 349.082031 217.363281 330.738281 C 230.710938 325.964844 242.480469 318.625 253.394531 308.757812 C 248.914062 303.683594 244.804688 299.035156 240.707031 294.386719 C 236.691406 289.820312 236.707031 289.847656 231.925781 293.460938 C 204.667969 314.117188 174.722656 317.78125 143.597656 304.902344 C 113.472656 292.4375 96.625 268.566406 92.96875 236.292969 C 89.726562 207.667969 98.058594 182.503906 119.445312 162.511719 C 134.058594 148.847656 151.453125 141.75 170.800781 140.230469 L 170.800781 256.320312 L 195.675781 256.320312 L 195.675781 139.808594 C 220.511719 139.707031 245.347656 139.832031 270.183594 139.816406 C 272.785156 139.816406 275.425781 139.898438 277.972656 139.5 C 305.757812 135.09375 323.828125 111.554688 322.421875 86.9375 Z M 296.285156 95.101562 C 292.804688 107.382812 282.6875 114.707031 268.941406 114.722656 C 244.523438 114.738281 220.105469 114.730469 195.683594 114.679688 L 195.683594 63.167969 C 221.054688 63.117188 244.183594 63.152344 267.308594 63.175781 C 270.050781 63.175781 272.816406 63.25 275.523438 63.59375 C 289.820312 65.382812 300.226562 81.222656 296.285156 95.101562 Z M 296.285156 95.101562 " fill-opacity="1" fill-rule="nonzero"/></g></svg>