<?xml version="1.0" encoding="UTF-8"?> <svg xmlns="http://www.w3.org/2000/svg" width="145" height="58" viewBox="0 0 145 58" fill="none"><mask id="mask0_2860_843" style="mask-type:luminance" maskUnits="userSpaceOnUse" x="9" y="11" width="41" height="38"><path d="M9.36829 20.4202V48.8318L49.1216 48.991V20.1472L35.0146 20.0638L26.5063 19.4496L18.8641 17.6222L9.36829 11.6017V20.4202Z" fill="white"></path></mask><g mask="url(#mask0_2860_843)"><mask id="mask1_2860_843" style="mask-type:luminance" maskUnits="userSpaceOnUse" x="-9" y="-8" width="77" height="77"><path d="M24.8424 -7.74163L-8.89258 34.4388L33.6515 68.338L67.3865 26.1576L24.8424 -7.74163Z" fill="white"></path></mask><g mask="url(#mask1_2860_843)"><path d="M67.3838 -7.74142H-8.89417V68.3337H67.3838V-7.74142Z" fill="#DDEBF9"></path><path d="M29.9477 57.1039C42.1356 57.1039 52.0159 47.242 52.0159 35.0768C52.0159 22.9115 42.1356 13.0496 29.9477 13.0496C17.7597 13.0496 7.87939 22.9115 7.87939 35.0768C7.87939 47.242 17.7597 57.1039 29.9477 57.1039Z" fill="#DDEBF9"></path><path d="M29.9476 57.0433C42.102 57.0433 51.955 47.2085 51.955 35.0768C51.955 22.945 42.102 13.1103 29.9476 13.1103C17.7932 13.1103 7.94006 22.945 7.94006 35.0768C7.94006 47.2085 17.7932 57.0433 29.9476 57.0433Z" fill="#DDEBF9"></path><path d="M29.9476 56.9826C42.0684 56.9826 51.8943 47.1751 51.8943 35.0768C51.8943 22.9785 42.0684 13.171 29.9476 13.171C17.8267 13.171 8.00085 22.9785 8.00085 35.0768C8.00085 47.1751 17.8267 56.9826 29.9476 56.9826Z" fill="#DDEBF9"></path><path d="M29.9476 56.3457C41.7161 56.3457 51.2562 46.8232 51.2562 35.0768C51.2562 23.3303 41.7161 13.8079 29.9476 13.8079C18.1792 13.8079 8.63904 23.3303 8.63904 35.0768C8.63904 46.8232 18.1792 56.3457 29.9476 56.3457Z" fill="#DDEBF9"></path><path d="M29.9476 55.7089C41.3636 55.7089 50.6181 46.4717 50.6181 35.077C50.6181 23.6822 41.3636 14.445 29.9476 14.445C18.5316 14.445 9.2771 23.6822 9.2771 35.077C9.2771 46.4717 18.5316 55.7089 29.9476 55.7089Z" fill="#DEEBF9"></path><path d="M29.9477 55.0794C41.0154 55.0794 49.9876 46.1239 49.9876 35.0768C49.9876 24.0296 41.0154 15.0741 29.9477 15.0741C18.8799 15.0741 9.90771 24.0296 9.90771 35.0768C9.90771 46.1239 18.8799 55.0794 29.9477 55.0794Z" fill="#DEECFA"></path><path d="M29.9476 54.4426C40.663 54.4426 49.3495 45.7723 49.3495 35.077C49.3495 24.3816 40.663 15.7113 29.9476 15.7113C19.2323 15.7113 10.5458 24.3816 10.5458 35.077C10.5458 45.7723 19.2323 54.4426 29.9476 54.4426Z" fill="#DFECFA"></path><path d="M29.9477 53.8057C40.3106 53.8057 48.7114 45.4205 48.7114 35.0769C48.7114 24.7333 40.3106 16.3481 29.9477 16.3481C19.5848 16.3481 11.184 24.7333 11.184 35.0769C11.184 45.4205 19.5848 53.8057 29.9477 53.8057Z" fill="#DFEDFA"></path><path d="M29.9477 53.1764C39.9623 53.1764 48.0809 45.073 48.0809 35.0769C48.0809 25.0809 39.9623 16.9775 29.9477 16.9775C19.933 16.9775 11.8145 25.0809 11.8145 35.0769C11.8145 45.073 19.933 53.1764 29.9477 53.1764Z" fill="#E0EDFA"></path><path d="M29.9476 52.5394C39.6099 52.5394 47.4427 44.7212 47.4427 35.0769C47.4427 25.4326 39.6099 17.6144 29.9476 17.6144C20.2853 17.6144 12.4525 25.4326 12.4525 35.0769C12.4525 44.7212 20.2853 52.5394 29.9476 52.5394Z" fill="#E1EDFA"></path><path d="M29.9477 51.9024C39.2575 51.9024 46.8046 44.3694 46.8046 35.0769C46.8046 25.7844 39.2575 18.2513 29.9477 18.2513C20.6378 18.2513 13.0907 25.7844 13.0907 35.0769C13.0907 44.3694 20.6378 51.9024 29.9477 51.9024Z" fill="#E2EEFA"></path><path d="M29.9476 51.2731C38.9092 51.2731 46.1741 44.0218 46.1741 35.0769C46.1741 26.132 38.9092 18.8807 29.9476 18.8807C20.986 18.8807 13.7212 26.132 13.7212 35.0769C13.7212 44.0218 20.986 51.2731 29.9476 51.2731Z" fill="#E2EEFB"></path><path d="M29.9477 50.6361C38.5569 50.6361 45.536 43.67 45.536 35.0769C45.536 26.4837 38.5569 19.5176 29.9477 19.5176C21.3385 19.5176 14.3594 26.4837 14.3594 35.0769C14.3594 43.67 21.3385 50.6361 29.9477 50.6361Z" fill="#E3EFFB"></path><path d="M29.9476 49.9991C38.2044 49.9991 44.8978 43.3182 44.8978 35.0768C44.8978 26.8354 38.2044 20.1544 29.9476 20.1544C21.6909 20.1544 14.9974 26.8354 14.9974 35.0768C14.9974 43.3182 21.6909 49.9991 29.9476 49.9991Z" fill="#E4EFFB"></path><path d="M29.9476 49.3698C37.8562 49.3698 44.2673 42.9707 44.2673 35.0768C44.2673 27.183 37.8562 20.7838 29.9476 20.7838C22.0391 20.7838 15.6279 27.183 15.6279 35.0768C15.6279 42.9707 22.0391 49.3698 29.9476 49.3698Z" fill="#E5F0FB"></path><path d="M29.9477 48.7329C37.5038 48.7329 43.6292 42.6188 43.6292 35.0768C43.6292 27.5348 37.5038 21.4207 29.9477 21.4207C22.3916 21.4207 16.2661 27.5348 16.2661 35.0768C16.2661 42.6188 22.3916 48.7329 29.9477 48.7329Z" fill="#E6F0FB"></path><path d="M29.9476 48.0959C37.1513 48.0959 42.9911 42.267 42.9911 35.0768C42.9911 27.8865 37.1513 22.0576 29.9476 22.0576C22.7439 22.0576 16.9042 27.8865 16.9042 35.0768C16.9042 42.267 22.7439 48.0959 29.9476 48.0959Z" fill="#E7F1FB"></path><path d="M29.9476 47.4666C36.8031 47.4666 42.3605 41.9195 42.3605 35.0768C42.3605 28.2341 36.8031 22.687 29.9476 22.687C23.0921 22.687 17.5347 28.2341 17.5347 35.0768C17.5347 41.9195 23.0921 47.4666 29.9476 47.4666Z" fill="#E7F2FC"></path><path d="M29.9475 46.8296C36.4506 46.8296 41.7223 41.5677 41.7223 35.0767C41.7223 28.5858 36.4506 23.3239 29.9475 23.3239C23.4445 23.3239 18.1727 28.5858 18.1727 35.0767C18.1727 41.5677 23.4445 46.8296 29.9475 46.8296Z" fill="#E8F2FC"></path><path d="M29.9476 46.1929C36.0982 46.1929 41.0843 41.2161 41.0843 35.0769C41.0843 28.9378 36.0982 23.961 29.9476 23.961C23.797 23.961 18.8109 28.9378 18.8109 35.0769C18.8109 41.2161 23.797 46.1929 29.9476 46.1929Z" fill="#E9F3FC"></path><path d="M29.9477 45.5633C35.7501 45.5633 40.4539 40.8683 40.4539 35.0767C40.4539 29.2852 35.7501 24.5901 29.9477 24.5901C24.1453 24.5901 19.4415 29.2852 19.4415 35.0767C19.4415 40.8683 24.1453 45.5633 29.9477 45.5633Z" fill="#EAF3FC"></path><path d="M29.9476 44.9266C35.3976 44.9266 39.8157 40.5168 39.8157 35.0769C39.8157 29.6371 35.3976 25.2273 29.9476 25.2273C24.4977 25.2273 20.0796 29.6371 20.0796 35.0769C20.0796 40.5168 24.4977 44.9266 29.9476 44.9266Z" fill="#EBF4FC"></path><path d="M29.9477 44.2896C35.0452 44.2896 39.1776 40.1649 39.1776 35.0769C39.1776 29.9888 35.0452 25.8642 29.9477 25.8642C24.8502 25.8642 20.7178 29.9888 20.7178 35.0769C20.7178 40.1649 24.8502 44.2896 29.9477 44.2896Z" fill="#ECF4FC"></path><path d="M29.9475 43.6603C34.6969 43.6603 38.547 39.8174 38.547 35.0769C38.547 30.3365 34.6969 26.4935 29.9475 26.4935C25.1982 26.4935 21.3481 30.3365 21.3481 35.0769C21.3481 39.8174 25.1982 43.6603 29.9475 43.6603Z" fill="#EDF5FD"></path><path d="M29.9476 43.0233C34.3445 43.0233 37.9089 39.4656 37.9089 35.0769C37.9089 30.6882 34.3445 27.1304 29.9476 27.1304C25.5507 27.1304 21.9863 30.6882 21.9863 35.0769C21.9863 39.4656 25.5507 43.0233 29.9476 43.0233Z" fill="#EEF6FD"></path><path d="M29.9476 42.3864C33.992 42.3864 37.2707 39.1138 37.2707 35.0768C37.2707 31.0399 33.992 27.7673 29.9476 27.7673C25.9031 27.7673 22.6244 31.0399 22.6244 35.0768C22.6244 39.1138 25.9031 42.3864 29.9476 42.3864Z" fill="#EFF6FD"></path><path d="M29.9477 41.7571C33.6439 41.7571 36.6403 38.7662 36.6403 35.0769C36.6403 31.3875 33.6439 28.3967 29.9477 28.3967C26.2514 28.3967 23.255 31.3875 23.255 35.0769C23.255 38.7662 26.2514 41.7571 29.9477 41.7571Z" fill="#F0F7FD"></path><path d="M29.9477 41.1201C33.2915 41.1201 36.0022 38.4144 36.0022 35.0768C36.0022 31.7392 33.2915 29.0336 29.9477 29.0336C26.6039 29.0336 23.8932 31.7392 23.8932 35.0768C23.8932 38.4144 26.6039 41.1201 29.9477 41.1201Z" fill="#F1F7FD"></path><path d="M29.9477 40.4831C32.9391 40.4831 35.3641 38.0626 35.3641 35.0768C35.3641 32.091 32.9391 29.6705 29.9477 29.6705C26.9563 29.6705 24.5312 32.091 24.5312 35.0768C24.5312 38.0626 26.9563 40.4831 29.9477 40.4831Z" fill="#F2F8FD"></path><path d="M29.9476 39.8538C32.5908 39.8538 34.7335 37.7151 34.7335 35.0768C34.7335 32.4386 32.5908 30.2999 29.9476 30.2999C27.3045 30.2999 25.1617 32.4386 25.1617 35.0768C25.1617 37.7151 27.3045 39.8538 29.9476 39.8538Z" fill="#F3F9FE"></path><path d="M29.9476 39.2168C32.2383 39.2168 34.0953 37.3633 34.0953 35.0768C34.0953 32.7903 32.2383 30.9367 29.9476 30.9367C27.6568 30.9367 25.7998 32.7903 25.7998 35.0768C25.7998 37.3633 27.6568 39.2168 29.9476 39.2168Z" fill="#F4F9FE"></path><path d="M29.9476 38.5799C31.886 38.5799 33.4573 37.0115 33.4573 35.0768C33.4573 33.142 31.886 31.5736 29.9476 31.5736C28.0093 31.5736 26.438 33.142 26.438 35.0768C26.438 37.0115 28.0093 38.5799 29.9476 38.5799Z" fill="#F5FAFE"></path><path d="M29.9477 37.9505C31.5378 37.9505 32.8269 36.6639 32.8269 35.0768C32.8269 33.4896 31.5378 32.203 29.9477 32.203C28.3576 32.203 27.0686 33.4896 27.0686 35.0768C27.0686 36.6639 28.3576 37.9505 29.9477 37.9505Z" fill="#F7FBFE"></path><path d="M29.9477 37.3138C31.1854 37.3138 32.1887 36.3123 32.1887 35.077C32.1887 33.8416 31.1854 32.8401 29.9477 32.8401C28.71 32.8401 27.7067 33.8416 27.7067 35.077C27.7067 36.3123 28.71 37.3138 29.9477 37.3138Z" fill="#F8FBFE"></path><path d="M29.9476 36.6768C30.8329 36.6768 31.5505 35.9605 31.5505 35.0769C31.5505 34.1933 30.8329 33.477 29.9476 33.477C29.0624 33.477 28.3447 34.1933 28.3447 35.0769C28.3447 35.9605 29.0624 36.6768 29.9476 36.6768Z" fill="#F9FCFE"></path><path d="M29.9476 36.0475C30.4846 36.0475 30.92 35.613 30.92 35.077C30.92 34.541 30.4846 34.1064 29.9476 34.1064C29.4106 34.1064 28.9752 34.541 28.9752 35.077C28.9752 35.613 29.4106 36.0475 29.9476 36.0475Z" fill="#F9FCFE"></path><path d="M29.9475 36.002C30.4594 36.002 30.8743 35.5878 30.8743 35.0769C30.8743 34.566 30.4594 34.1519 29.9475 34.1519C29.4357 34.1519 29.0208 34.566 29.0208 35.0769C29.0208 35.5878 29.4357 36.002 29.9475 36.002Z" fill="#F8FBFE"></path><path d="M29.9476 35.9565C30.4343 35.9565 30.8288 35.5627 30.8288 35.0769C30.8288 34.5911 30.4343 34.1973 29.9476 34.1973C29.4609 34.1973 29.0664 34.5911 29.0664 35.0769C29.0664 35.5627 29.4609 35.9565 29.9476 35.9565Z" fill="#F7FBFE"></path><path d="M29.9476 35.9109C30.4091 35.9109 30.7832 35.5375 30.7832 35.0769C30.7832 34.6162 30.4091 34.2428 29.9476 34.2428C29.4861 34.2428 29.1119 34.6162 29.1119 35.0769C29.1119 35.5375 29.4861 35.9109 29.9476 35.9109Z" fill="#F6FAFE"></path><path d="M29.9475 35.8654C30.3839 35.8654 30.7376 35.5123 30.7376 35.0768C30.7376 34.6413 30.3839 34.2882 29.9475 34.2882C29.5112 34.2882 29.1575 34.6413 29.1575 35.0768C29.1575 35.5123 29.5112 35.8654 29.9475 35.8654Z" fill="#F5FAFE"></path><path d="M29.9476 35.8199C30.3588 35.8199 30.6921 35.4872 30.6921 35.0768C30.6921 34.6664 30.3588 34.3337 29.9476 34.3337C29.5364 34.3337 29.2031 34.6664 29.2031 35.0768C29.2031 35.4872 29.5364 35.8199 29.9476 35.8199Z" fill="#F4F9FD"></path><path d="M29.9476 35.7743C30.3335 35.7743 30.6464 35.462 30.6464 35.0767C30.6464 34.6915 30.3335 34.3792 29.9476 34.3792C29.5616 34.3792 29.2487 34.6915 29.2487 35.0767C29.2487 35.462 29.5616 35.7743 29.9476 35.7743Z" fill="#F3F9FD"></path><path d="M29.9477 35.729C30.3086 35.729 30.6011 35.4371 30.6011 35.0769C30.6011 34.7168 30.3086 34.4249 29.9477 34.4249C29.5869 34.4249 29.2944 34.7168 29.2944 35.0769C29.2944 35.4371 29.5869 35.729 29.9477 35.729Z" fill="#F3F8FD"></path><path d="M29.9477 35.6835C30.2833 35.6835 30.5554 35.4119 30.5554 35.0769C30.5554 34.7419 30.2833 34.4703 29.9477 34.4703C29.6121 34.4703 29.34 34.7419 29.34 35.0769C29.34 35.4119 29.6121 35.6835 29.9477 35.6835Z" fill="#F2F7FD"></path><path d="M29.9477 35.638C30.2581 35.638 30.5098 35.3868 30.5098 35.0769C30.5098 34.767 30.2581 34.5158 29.9477 34.5158C29.6372 34.5158 29.3855 34.767 29.3855 35.0769C29.3855 35.3868 29.6372 35.638 29.9477 35.638Z" fill="#F1F7FD"></path><path d="M29.9477 35.5924C30.233 35.5924 30.4643 35.3616 30.4643 35.0768C30.4643 34.7921 30.233 34.5612 29.9477 34.5612C29.6624 34.5612 29.4312 34.7921 29.4312 35.0768C29.4312 35.3616 29.6624 35.5924 29.9477 35.5924Z" fill="#F0F6FC"></path><path d="M29.9477 35.5469C30.2078 35.5469 30.4187 35.3364 30.4187 35.0768C30.4187 34.8172 30.2078 34.6067 29.9477 34.6067C29.6876 34.6067 29.4767 34.8172 29.4767 35.0768C29.4767 35.3364 29.6876 35.5469 29.9477 35.5469Z" fill="#EFF6FC"></path><path d="M29.9476 35.5014C30.1826 35.5014 30.373 35.3113 30.373 35.0768C30.373 34.8423 30.1826 34.6521 29.9476 34.6521C29.7127 34.6521 29.5222 34.8423 29.5222 35.0768C29.5222 35.3113 29.7127 35.5014 29.9476 35.5014Z" fill="#EEF5FC"></path><path d="M29.9477 35.4561C30.1575 35.4561 30.3275 35.2864 30.3275 35.077C30.3275 34.8676 30.1575 34.6978 29.9477 34.6978C29.7379 34.6978 29.5679 34.8676 29.5679 35.077C29.5679 35.2864 29.7379 35.4561 29.9477 35.4561Z" fill="#EDF4FC"></path><path d="M29.9477 35.4105C30.1323 35.4105 30.2819 35.2612 30.2819 35.0769C30.2819 34.8927 30.1323 34.7433 29.9477 34.7433C29.7631 34.7433 29.6134 34.8927 29.6134 35.0769C29.6134 35.2612 29.7631 35.4105 29.9477 35.4105Z" fill="#ECF4FC"></path><path d="M29.9476 35.365C30.107 35.365 30.2363 35.236 30.2363 35.0769C30.2363 34.9178 30.107 34.7888 29.9476 34.7888C29.7882 34.7888 29.6589 34.9178 29.6589 35.0769C29.6589 35.236 29.7882 35.365 29.9476 35.365Z" fill="#EBF3FB"></path><path d="M29.9477 35.3195C30.0819 35.3195 30.1908 35.2109 30.1908 35.0769C30.1908 34.9428 30.0819 34.8342 29.9477 34.8342C29.8134 34.8342 29.7046 34.9428 29.7046 35.0769C29.7046 35.2109 29.8134 35.3195 29.9477 35.3195Z" fill="#EBF3FB"></path><path d="M29.9476 35.1982C30.0147 35.1982 30.0691 35.1439 30.0691 35.0769C30.0691 35.0099 30.0147 34.9556 29.9476 34.9556C29.8805 34.9556 29.826 35.0099 29.826 35.0769C29.826 35.1439 29.8805 35.1982 29.9476 35.1982Z" fill="#EBF3FB"></path></g></g><path d="M49.5013 49.3701L8.9884 49.2109V9.74402L13.9642 13.9751L19.1527 17.2128L26.5974 19.0781L35.0373 19.6847L49.4937 19.7681V49.3701H49.5013ZM9.74807 48.4527L48.7417 48.6119V20.5263L35.0145 20.4429L26.4835 19.8287L18.8033 17.8876L13.516 14.5817L9.74807 11.3818V48.4527Z" fill="#1E1E1C"></path><path d="M67.4066 27.9422V31.1345H57.8273V16.8111H61.1926V27.9422H67.4066Z" fill="#C1181B"></path><path d="M76.7429 29.4739H72.899L72.3673 31.142H69.7236L73.5372 20.5265H76.12L79.9335 31.142H77.2747L76.7429 29.4739ZM76.0137 27.2446L75.2844 24.9395C75.2236 24.7424 75.1628 24.5453 75.1173 24.3481C75.0717 24.151 75.0261 23.9842 74.9805 23.8325C74.9349 23.6809 74.9045 23.5595 74.8742 23.4685L74.8286 23.3321H74.8134L74.783 23.4685C74.7526 23.5595 74.7222 23.6809 74.6767 23.8325C74.6311 23.9842 74.5855 24.151 74.5247 24.3481C74.4639 24.5453 74.4032 24.7424 74.3424 24.9395L73.5979 27.2446H76.0137Z" fill="#C1181B"></path><path d="M86.6187 20.4886L86.6643 20.4431C87.1353 20.4431 87.5759 20.5189 87.9709 20.6554C88.3659 20.7919 88.7002 20.9891 88.9737 21.2469C89.2471 21.5047 89.4599 21.808 89.6118 22.1568C89.7637 22.5056 89.8397 22.8695 89.8397 23.2638C89.8397 23.5368 89.7941 23.7946 89.7029 24.0221C89.6118 24.2495 89.5054 24.4467 89.3687 24.6287C89.232 24.8106 89.08 24.9623 88.9129 25.0836C88.7458 25.2049 88.5938 25.2807 88.4571 25.3262V25.3414C88.7002 25.4021 88.9433 25.5082 89.1712 25.6599C89.3991 25.8115 89.5966 25.9935 89.7637 26.221C89.9308 26.4485 90.0676 26.7063 90.1739 26.9944C90.2803 27.2825 90.3411 27.5707 90.3411 27.874C90.3411 28.3441 90.2651 28.7687 90.1132 29.163C89.9612 29.5573 89.7333 29.8909 89.4295 30.179C89.1256 30.4672 88.7458 30.6946 88.2748 30.8615C87.8038 31.0283 87.2568 31.1041 86.6187 31.1041H82.4406V20.4886H86.6187ZM86.2389 24.6438V24.6135C86.5579 24.6135 86.8314 24.5225 87.0441 24.3405C87.2568 24.1585 87.3632 23.9159 87.3632 23.6278C87.3632 23.3245 87.2568 23.0818 87.0441 22.8998C86.8314 22.7179 86.5579 22.6269 86.2389 22.6269H84.9323V24.6438H86.2389ZM86.4516 29.0265C86.8618 29.0265 87.1809 28.9052 87.4088 28.6777C87.6367 28.4502 87.7582 28.1469 87.7582 27.783C87.7582 27.419 87.6367 27.1005 87.3936 26.8882C87.1505 26.6759 86.8314 26.5698 86.4516 26.5698H84.9323V29.0265H86.4516Z" fill="#C1181B"></path><path d="M93.6683 31.142V16.8186H97.0337V31.142H93.6683Z" fill="#C1181B"></path><path d="M110.351 20.519L110.32 31.1649H108.041L105.944 27.9651C105.747 27.6618 105.504 27.3281 105.261 26.9793C105.018 26.6305 104.805 26.2969 104.607 25.9936C104.41 25.6903 104.243 25.4477 104.106 25.2505L103.909 24.9472H103.878L103.893 25.2202C103.909 25.4022 103.909 25.66 103.924 26.0088C103.939 26.3576 103.954 26.767 103.969 27.2371C103.985 27.7072 103.985 28.2229 103.985 28.7991V31.1345H101.508V20.5342H103.787L106.005 23.8857C106.157 24.1131 106.34 24.3861 106.552 24.7046C106.765 25.023 106.978 25.3263 107.175 25.6145C107.373 25.9026 107.525 26.1453 107.677 26.3576L107.889 26.6609H107.904V25.5538C107.904 25.2202 107.904 24.8259 107.889 24.3709C107.874 23.916 107.874 23.4459 107.874 22.9454V20.519H110.351Z" fill="#C1181B"></path><path d="M116.458 22.8696V24.9776H119.953V27.2523H116.458V31.1345H113.967V20.519H121.016V22.8696H116.458Z" fill="#C1181B"></path><path d="M129.403 31.1574L127.58 27.7149H126.455V31.1726H123.964V20.5722H127.732C128.339 20.5722 128.902 20.6632 129.403 20.83C129.904 20.9969 130.33 21.2395 130.679 21.558C131.029 21.8764 131.302 22.2555 131.5 22.6953C131.697 23.1351 131.788 23.6356 131.788 24.1815C131.788 24.8943 131.636 25.5009 131.317 26.0165C130.998 26.5321 130.558 26.9264 129.98 27.2145L132.199 31.1574H129.403ZM126.471 25.4402L127.99 25.4705C128.203 25.4705 128.385 25.425 128.537 25.3492C128.689 25.2734 128.81 25.1672 128.902 25.0459C128.993 24.9246 129.069 24.7881 129.114 24.6365C129.16 24.4848 129.19 24.3332 129.19 24.1663C129.19 23.9995 129.16 23.8479 129.114 23.6962C129.069 23.5446 128.993 23.4081 128.902 23.2868C128.81 23.1654 128.689 23.0593 128.537 22.9835C128.385 22.9076 128.203 22.8621 127.99 22.8621H126.471V25.4402Z" fill="#C1181B"></path><path d="M141.041 29.4739H137.197L136.665 31.142H134.022L137.835 20.5265H140.418L144.232 31.142H141.573L141.041 29.4739ZM140.312 27.2446L139.582 24.9395C139.522 24.7424 139.461 24.5453 139.415 24.3481C139.37 24.151 139.324 23.9842 139.279 23.8325C139.233 23.6809 139.203 23.5595 139.172 23.4685L139.127 23.3321H139.111L139.081 23.4685C139.051 23.5595 139.02 23.6809 138.975 23.8325C138.929 23.9842 138.884 24.151 138.823 24.3481C138.762 24.5453 138.701 24.7424 138.64 24.9395L137.896 27.2446H140.312Z" fill="#C1181B"></path><path d="M30.0389 19.2298H28.5195V33.5455H30.0389V19.2298Z" fill="#7A7879"></path><path d="M38.7598 20.9206C12.1183 20.9206 8.49473 9.78189 8.33521 9.25111L9.79376 8.82649L9.06448 9.0388L9.79376 8.81891C9.83174 8.95539 14.329 22.1414 49.3723 18.8809L49.5166 20.3898C45.574 20.7538 41.996 20.9206 38.7674 20.9206H38.7598Z" fill="#7A7879"></path><path d="M19.9278 16.9325H18.4084V33.5458H19.9278V16.9325Z" fill="#7A7879"></path><path d="M40.1499 20.064H38.6306V33.5457H40.1499V20.064Z" fill="#7A7879"></path><path d="M49.5014 19.0934H47.9821V33.5457H49.5014V19.0934Z" fill="#7A7879"></path><path d="M53.4441 32.9615H2.37183V33.8714H53.4441V32.9615Z" fill="#E3211D"></path><path d="M57.2804 33.4169L52.8971 31.8246C52.8971 31.8246 53.4441 33.4169 52.8971 35.0092L57.2804 33.4169Z" fill="#E3211D"></path><path d="M9.82407 13.4594H8.91248V47.9446H9.82407V13.4594Z" fill="#E3211D"></path><path d="M9.36837 9.6306L7.77307 14.0057C7.77307 14.0057 9.36837 13.4598 10.9637 14.0057L9.36837 9.6306Z" fill="#E3211D"></path><path d="M8.33521 47.035C8.33521 47.035 20.505 34.357 55.7079 35.646L55.594 37.4204C55.594 37.4204 25.5568 36.6773 12.1031 50.1589" fill="#1E1E1C"></path><path d="M10.1889 48.832L9.92297 48.559C9.92297 48.559 10.3256 48.1572 11.1232 47.5278L11.3587 47.8235C10.5839 48.4377 10.1965 48.8244 10.1889 48.832ZM12.597 46.8985L12.3767 46.5876C12.7945 46.2919 13.2275 45.9886 13.6681 45.708L13.8732 46.0265C13.4402 46.3146 13.0072 46.6028 12.5894 46.8985H12.597ZM15.195 45.2L14.9975 44.874C15.4229 44.6161 15.8712 44.3583 16.3573 44.093L16.5397 44.4266C16.0611 44.692 15.6129 44.9498 15.195 45.2ZM17.907 43.6911L17.7323 43.3499C18.1805 43.1224 18.6439 42.8873 19.1377 42.6599L19.2972 43.0011C18.8111 43.2286 18.3477 43.4636 17.907 43.6911ZM20.7102 42.3566L20.5583 42.0078C21.0217 41.803 21.5003 41.5983 21.994 41.3936L22.1384 41.7424C21.6446 41.9471 21.166 42.1443 20.7102 42.349V42.3566ZM23.5893 41.1813L23.4526 40.8249C23.9312 40.6429 24.4174 40.4685 24.9188 40.2941L25.0479 40.6505C24.5465 40.8249 24.0603 40.9993 23.5893 41.1813ZM26.5216 40.1576L26.4077 39.7937C26.8939 39.6345 27.3953 39.4828 27.9042 39.3312L28.0106 39.6951C27.5016 39.8468 27.0078 39.9984 26.5216 40.1501V40.1576ZM29.4995 39.2781L29.4008 38.9141C29.8946 38.7776 30.4035 38.6487 30.9125 38.5274L31.0037 38.8989C30.4947 39.0203 29.9933 39.1492 29.4995 39.2857V39.2781ZM32.5154 38.535L32.4318 38.1634C32.9332 38.0497 33.4422 37.9436 33.9588 37.845L34.0347 38.2165C33.5182 38.3227 33.0092 38.4288 32.5154 38.535ZM35.5617 37.9284L35.4933 37.5568C36.0023 37.4659 36.5112 37.3825 37.0354 37.299L37.0962 37.6706C36.5796 37.754 36.063 37.8374 35.5617 37.9284ZM38.6307 37.4507L38.5775 37.0716C39.0865 37.0033 39.6031 36.9351 40.1272 36.8744L40.1728 37.2535C39.6487 37.3142 39.1397 37.3824 38.6307 37.4507ZM41.7149 37.0867L41.677 36.7076C42.1859 36.6545 42.7101 36.609 43.2343 36.5711L43.2647 36.9502C42.7405 36.9957 42.2239 37.0412 41.7149 37.0867ZM44.8144 36.8365L44.7916 36.4574C45.3082 36.4271 45.8247 36.3967 46.3489 36.374L46.3641 36.7531C45.8399 36.7759 45.3234 36.8062 44.8144 36.8365ZM55.6852 36.791C55.1686 36.7683 54.652 36.7455 54.1431 36.7228L54.1583 36.3436C54.6672 36.3588 55.1838 36.3816 55.7004 36.4119L55.6776 36.791H55.6852ZM47.9214 36.7V36.3209C48.4228 36.3057 48.947 36.2982 49.4711 36.2906V36.6697C48.9546 36.6697 48.4304 36.6849 47.9214 36.7ZM52.5858 36.6849C52.0616 36.6773 51.545 36.6697 51.0284 36.6621V36.283C51.545 36.283 52.0692 36.2906 52.5933 36.3057V36.6849H52.5858Z" fill="white"></path><path d="M39.7473 1.4035C22.9739 -3.84359 3.89116 6.05915 0.586616 23.8098C-2.96102 42.8418 13.6301 59.5612 32.5761 57.3775C42.1859 56.2704 50.6713 50.8186 55.5863 42.5006C55.7003 42.3035 53.7404 42.3793 53.4213 42.9101C47.3288 53.2147 35.7439 58.8485 23.8552 55.9595C14.9291 53.791 7.4236 47.1487 4.16464 38.5729C0.981642 30.1866 1.96921 20.5796 6.87664 13.0502C13.6756 2.60911 26.1038 -1.49302 37.9241 2.20724C38.3951 2.35889 40.3171 1.57789 39.7473 1.39591" fill="#C1181B"></path><path d="M47.2148 19.063L49.5394 18.8507L49.5014 20.8828L47.6099 19.8667" fill="#7A7879"></path></svg> 